<svg xmlns="http://www.w3.org/2000/svg" viewBox="0 0 1200 1200"><defs><style>.cls-1{fill:none;}.cls-2{fill:#fff;}</style></defs><title>Logo Completo</title><g id="Capa_2" data-name="Capa 2"><g id="Capa_1-2" data-name="Capa 1"><circle class="cls-1" cx="600" cy="600" r="600"/><path class="cls-2" d="M342.66,892.14h38.61v10.12H355.2v16h20v9.94h-20v26.43H342.66Z"/><path class="cls-2" d="M419.17,955.29c-17.65,0-32.08-13.26-32.08-32.07s14.43-32,32.08-32c17.82,0,32,13.26,32,32S436.9,955.29,419.17,955.29Zm0-11.19c11.28,0,19.08-8.16,19.08-20.88s-7.8-20.69-19.08-20.69S400,910.5,400,923.22,407.79,944.1,419.17,944.1Z"/><path class="cls-2" d="M457.15,892.14H503v10.12H486.36v52.41H473.81V902.26H457.15Z"/><path class="cls-2" d="M541.18,955.29c-17.65,0-32.07-13.26-32.07-32.07s14.42-32,32.07-32c17.83,0,32,13.26,32,32S558.92,955.29,541.18,955.29Zm0-11.19c11.29,0,19.08-8.16,19.08-20.88s-7.79-20.69-19.08-20.69S522,910.5,522,923.22,529.8,944.1,541.18,944.1ZM551,868.93v10.22l-20.61,9.4V879.6Z"/><path class="cls-2" d="M640.44,911H626c-2.87-5.29-8.06-8.06-14.69-8.06-11.2,0-19,8-19,20.42,0,12.72,7.88,20.61,19.53,20.61,9.67,0,15.85-5.56,17.73-14.43H608.1v-9.58H642v10.93c-2.51,12.72-13.89,24.36-30.55,24.36-18.19,0-32-13.17-32-31.89s13.79-32,31.89-32C625.3,891.33,636.41,898.41,640.44,911Z"/><path class="cls-2" d="M674.76,892.14c15,0,22.57,8.69,22.57,19.17,0,7.61-4.21,15.32-14.24,18l15,25.36H683.53L669.74,930.3h-5.91v24.37H651.28V892.14Zm-.45,10.39H663.83v18.36h10.48c7,0,10.12-3.67,10.12-9.31S681.3,902.53,674.31,902.53Z"/><path class="cls-2" d="M747.05,942.75h-24.9L718,954.67H704.86l22.48-62.62H742l22.48,62.62H751.17ZM734.6,906.56l-9.05,26.16h18.1Z"/><path class="cls-2" d="M772.85,892.14h38.61v10.12H785.39v16h20v9.94h-20v26.43H772.85Z"/><path class="cls-2" d="M849.36,955.29c-17.65,0-32.07-13.26-32.07-32.07s14.42-32,32.07-32c17.83,0,32,13.26,32,32S867.1,955.29,849.36,955.29Zm0-11.19c11.29,0,19.08-8.16,19.08-20.88s-7.79-20.69-19.08-20.69-19.17,8-19.17,20.69S838,944.1,849.36,944.1Z"/><path class="cls-2" d="M285.94,815.43a63.12,63.12,0,0,0-62.14-62.14l.34-32.94a95.75,95.75,0,0,1,94.74,94.74Z"/><polygon class="cls-2" points="403.93 752.8 370.99 752.8 370.99 668.64 286.83 668.64 286.83 635.7 403.93 635.7 403.93 752.8"/><path class="cls-2" d="M357.66,346.49,242.91,510.63H357.66v53.2H169.2v-49.4l114-164.14h-114V297.1H357.66Z"/><path class="cls-2" d="M561.69,516.71H462.14l-16,47.12h-68L474.68,297.1h75.23l96.51,266.73H577.65Zm-49.77-147.8-32.68,97.65H545Z"/><path class="cls-2" d="M780.16,297.1c65.36,0,98,37.61,98,84,0,33.43-18.24,65-59.27,77.13l61.55,105.63H807.14L751.67,463.14H736.09V563.83h-65V297.1Zm-3.8,53.95H736.09v66.11h40.27c24.32,0,35.72-12.54,35.72-33.43C812.08,364,800.68,351.05,776.36,351.05Z"/><path class="cls-2" d="M540.73,593.1V809.67h85.11v50.16H475.76V593.1Z"/><path class="cls-2" d="M819.62,645.15H721.21v54h87v50.16h-87v58.51h98.41v52.06H656.23V593.1H819.62Z"/><path class="cls-2" d="M957.53,862.49c-57.37,0-102.21-28.5-104.11-82.45h69.16c1.89,20.51,14.81,30.39,33,30.39,19,0,31.16-9.5,31.16-25.07,0-49.4-133.37-22.8-132.61-117.41,0-50.54,41.42-78.65,97.27-78.65,58.13,0,97.27,28.87,99.93,79.79H981.09c-1.14-17.1-13.3-27.36-30.78-27.74C934.73,641,923,649,923,665.67c0,46.35,131.84,25.46,131.84,114.75C1054.8,825.25,1019.84,862.49,957.53,862.49Z"/></g></g></svg>