<svg xmlns="http://www.w3.org/2000/svg" viewBox="0 0 712.58 146.85"><defs><style>.cls-1{fill:#fff;}</style></defs><title>Recurso 15</title><g id="Capa_2" data-name="Capa 2"><g id="Capa_1-2" data-name="Capa 1"><path class="cls-1" d="M101.3,28.29,39.62,116.52H101.3v28.59H0V118.56L61.27,30.33H0V1.74H101.3Z"/><path class="cls-1" d="M211,119.78H157.46l-8.58,25.33H112.32L164.2,1.74h40.44l51.87,143.37h-37ZM184.21,40.34,166.65,92.82H202Z"/><path class="cls-1" d="M328.4,1.74c35.13,0,52.69,20.22,52.69,45.13,0,18-9.8,34.93-31.86,41.46l33.09,56.78H342.9L313.08,91h-8.37v54.12H269.78V1.74Zm-2,29H304.71V66.27h21.64c13.08,0,19.2-6.74,19.2-18C345.55,37.68,339.43,30.74,326.35,30.74Z"/><path class="cls-1" d="M436.26,2V118.46H482v27H401.34V2Z"/><path class="cls-1" d="M586.16,30H533.27V59H580V86H533.27v31.46h52.89v28H498.34V2h87.82Z"/><path class="cls-1" d="M660.29,146.85c-30.84,0-54.94-15.32-56-44.32H641.5c1,11,8,16.33,17.77,16.33,10.21,0,16.75-5.1,16.75-13.47,0-26.55-71.69-12.26-71.28-63.11C604.74,15.11,627,0,657,0c31.24,0,52.28,15.52,53.71,42.89H673c-.62-9.19-7.15-14.71-16.55-14.91-8.37-.2-14.7,4.09-14.7,13.07,0,24.92,70.87,13.69,70.87,61.68C712.58,126.83,693.79,146.85,660.29,146.85Z"/></g></g></svg>